<?xml version="1.0" encoding="utf-8"?>
<!-- Generator: Adobe Illustrator 24.3.0, SVG Export Plug-In . SVG Version: 6.00 Build 0)  -->
<svg version="1.1" id="레이어_1" xmlns="http://www.w3.org/2000/svg" xmlns:xlink="http://www.w3.org/1999/xlink" x="0px"
	 y="0px" viewBox="0 0 1920 1080" style="enable-background:new 0 0 1920 1080;" xml:space="preserve">
<style type="text/css">
	.st0{fill:#1D1D1B;}
</style>
<path class="st0" d="M653.08,479.81l1.71-3.41l3.41-1.71h3.41l3.41,3.41l1.71,8.53l1.7,11.94l1.71,8.53l1.7,3.41l1.71,5.12
	l13.65,3.41l-13.65-1.7h66.53V505.4l-1.71-30.71l-1.71-5.12v-5.12l1.71-3.41l1.71-1.71l3.41-1.71h1.7l3.41,1.71l1.71,3.41
	l1.71,23.88l1.7,29l1.71,39.23l1.7,23.88l1.71,10.24l1.7,17.06l1.71,10.23v6.82l-1.71,1.71l-3.41,1.71l-5.12-1.71l-1.71-3.41
	l-1.71-3.41l-1.7-11.94l-1.71-27.29l-1.7-1.7l-1.71-46.06h-27.29l-35.82,1.71l-1.71,1.7v10.24l1.71,27.29l1.7,10.24l1.71,1.7v1.71
	l1.7,3.41v1.7l-1.7,1.71l-8.53,3.41l-1.71-1.7l-1.7-3.41l-1.71-3.41l-1.7-3.41l-1.71-11.94l-1.71-29l-1.7-10.23l-1.71-10.24
	l-1.7-8.53l-1.71-8.53l-1.7-8.53L653.08,479.81z"/>
<path class="st0" d="M770.77,457.63l3.41-5.12h6.82l3.41,1.7l1.7,3.41l1.71,3.41l1.7,3.41l3.41,1.7l3.41,3.41l3.41,1.71l1.7,3.41
	l3.41,3.41l1.7,3.41l3.41,1.71l1.71,1.71l3.41,1.7l1.71,3.41l3.41,1.71l1.7,3.41l3.41,1.71l1.7,1.7l3.41,1.71l1.71,1.7l1.7-1.7
	l3.41-3.41l1.7-1.71l1.71-3.41l1.7-1.71l3.41-3.41l3.41-1.7l1.7-1.71l3.41-3.41l1.71-1.71l3.41-3.41l1.71-1.7l3.41-3.41l1.7-1.7
	l3.41-3.41l1.7-1.71l1.71-3.41l3.41-3.41l3.41-1.71l6.82,1.71v6.82l-1.7,3.41l-1.71,3.41l-3.41,3.41l-1.71,1.7l-3.41,3.41l-1.7,1.71
	l-3.41,3.41l-1.71,1.71l-3.41,3.41l-1.71,1.7l-3.41,3.41l-1.7,1.7l-5.12,3.41l-1.71,3.41l-3.41,3.41l-1.71,1.7l-3.41,3.41v11.94
	l1.71,17.06v1.71l1.7,61.41v1.7l-1.7,1.71l-8.53,3.41l-1.71-1.71l-1.7-3.41l-1.71-64.82l-1.7-17.06l-1.71-6.82l-5.12-1.71l-1.7-5.12
	l-5.12-1.71l-1.71-3.41l-3.41-1.71l-1.7-3.41l-3.41-1.7l-1.71-3.41h-3.41l-1.71-3.41l-3.41-1.7l-1.7-5.12l-3.41-1.71l-1.7-3.41
	h-3.41l-1.71-3.41l-3.41-1.7l-1.71-3.41l-1.7-3.41l-3.41-1.7L770.77,457.63z"/>
<path class="st0" d="M895.29,534.39l1.71-6.82l1.7-8.53l1.71-3.41l1.7-3.41l1.71-3.41l1.7-1.71l1.71-3.41l3.41-6.82l1.71-1.71
	l3.41-3.41l1.71-1.71l3.41-3.41l1.7-1.7l3.41-3.41h1.71l3.41-3.41h1.71l3.41-3.41l5.12-1.7l8.53-1.71l3.41-1.71l11.94-1.7l3.41,1.7
	l17.06,1.71l3.41,1.71l5.12,1.7l3.41,3.41l3.41,1.71l1.7,3.41l3.41,1.71l1.71,3.41l3.41,5.12l1.71,3.41l1.71,3.41l1.71,5.12
	l1.71,6.82l1.7,6.82v17.06l-1.7,11.94l-1.71,5.12l-1.71,3.41l-1.71,3.41v1.71l-3.41,3.41l-1.71,3.41l-3.41,3.41v1.71l-3.41,3.41
	l-1.71,1.7l-5.12,3.41l-1.71,1.7l-5.12,3.41l-1.7,1.71l-3.41,1.7l-3.41,1.71l-5.12,1.71l-3.41,1.7l-3.41,1.71l-5.12,1.7h-18.77
	l-8.53-1.7l-6.82-1.71l-3.41-1.7l-6.82-1.71l-1.71-3.41l-3.41-1.71l-1.71-3.41l-3.41-1.7v-3.41l-3.41-1.7l-1.71-3.41l-1.7-3.41
	l-1.71-3.41l-1.7-11.94v5.12L895.29,534.39z M960.11,585.57l3.41-1.71l5.12-1.7l3.41-1.71l3.41-1.71l3.41-1.7l3.41-1.71l3.41-3.41
	l3.41-1.7l1.71-1.71l3.41-5.12l1.7-1.7l3.41-5.12l1.71-1.71l1.7-3.41l1.71-5.12l1.71-10.23v-17.06l-1.71-6.82v-6.82l-3.41-1.71
	l-1.71-3.41v-3.41l-3.41-1.71l-1.7-3.41l-3.41-1.71l-1.71-3.41l-5.12-1.7l-13.65-1.71l-3.41-1.71h-5.12l-6.82,1.71l-6.82,1.71
	l-8.53,3.41l-1.71,1.7l-3.41,1.71l-3.41,3.41l-1.7,1.71l-3.41,3.41l-1.7,1.7l-3.41,3.41l-1.71,5.12l-3.41,3.41l-1.71,3.41l-1.7,3.41
	l-1.71,5.12l-1.7,8.53v18.77l1.7,6.82l1.71,5.12l1.7,1.7l1.71,3.41l1.71,3.41l3.41,1.7l1.7,3.41l3.41,1.71l3.41,1.71l3.41,1.7
	l8.53,1.71H960.11z"/>
<path class="st0" d="M1125.48,466.16l1.71-1.7l3.41-3.41h3.41l3.41,3.41v6.82v32.41l1.71,17.06l1.71,8.53l1.71,6.82l1.7,3.41
	l1.71,5.12l1.71,5.12l1.71,3.41l1.71,3.41l3.41,1.7l1.71,3.41l3.41,1.7l1.7,3.41l3.41,1.71l1.71,3.41l1.7,1.71l3.41,1.7h8.53h3.41
	l3.41-3.41l1.71-1.7l1.71-3.41l1.71-3.41l1.71-3.41l1.7-3.41l1.71-10.24l1.71-10.23l1.71-10.24l1.71-10.23l1.7-11.94l1.71-23.88
	l1.71-18.76l3.41-3.41h3.41l3.41,3.41v25.58l-1.71,27.29l-1.71,10.24l-1.71,10.23l-1.71,10.24l-1.7,10.23l-1.71,6.82l-1.71,3.41
	l-1.71,3.41l-1.7,3.41l-1.71,3.41l-1.71,3.41l-3.41,3.41l-1.7,1.7l-3.41,1.71l-3.41,1.7l-5.12,1.71h-11.94l-3.41-1.71l-6.82-1.7
	l-1.71-5.12l-3.41-1.71l-1.71-3.41l-3.41-1.7l-1.71-3.41l-3.41-1.71l-1.7-3.41l-3.41-1.71l-1.71-3.41l-1.71-5.12l-1.7-5.12
	l-1.71-5.12l-1.71-3.41l-1.71-11.94v6.82l-1.7-23.88v15.35L1125.48,466.16z"/>
<g>
	<path class="st0" d="M1264.44,498.11c-1.42,0.09-3.17,0.11-5.25,0.05c-2.08-0.06-4.22-0.16-6.41-0.31
		c-2.23-0.18-4.36-0.37-6.39-0.58c-2.03-0.21-3.69-0.43-4.96-0.67c-0.48-0.06-0.81-0.24-1-0.55c-0.2-0.31-0.26-0.63-0.2-0.96
		c0.03-0.33,0.17-0.61,0.45-0.87c0.27-0.25,0.64-0.38,1.11-0.38c0.98,0.18,1.87,0.32,2.67,0.42c0.8,0.1,1.83,0.18,3.07,0.24
		c0.03-0.65,0.06-1.2,0.09-1.65c0.03-0.45,0.05-0.86,0.09-1.25c0.03-0.41,0.07-0.84,0.11-1.27c0.05-0.43,0.11-0.97,0.2-1.63
		c0.09-0.41,0.32-0.73,0.67-0.93c0.36-0.21,0.71-0.3,1.07-0.27c0.35,0.03,0.67,0.17,0.93,0.42s0.37,0.62,0.31,1.09
		c-0.24,1.16-0.39,2.1-0.47,2.83c-0.08,0.73-0.13,1.67-0.16,2.83c0.42,0.03,0.92,0.07,1.52,0.11c0.59,0.04,1.18,0.1,1.78,0.15
		c0.62,0.03,1.22,0.07,1.8,0.13c0.58,0.06,1.09,0.11,1.54,0.14c0.06-1.07,0.08-2.07,0.07-3.01c-0.01-0.93-0.07-2.03-0.15-3.28
		c-0.09-0.44,0-0.79,0.27-1.02c0.27-0.24,0.58-0.36,0.93-0.36c0.33-0.03,0.65,0.08,0.96,0.31c0.31,0.24,0.48,0.6,0.51,1.07
		c0.09,1.19,0.14,2.3,0.14,3.34c0,1.04-0.02,2.08-0.04,3.12c0.68,0,1.24,0,1.67,0s0.82,0,1.18,0c0.33,0,0.65,0,0.96,0s0.72,0,1.22,0
		c0.42,0.06,0.73,0.23,0.96,0.51c0.22,0.28,0.34,0.59,0.34,0.91c-0.03,0.33-0.17,0.63-0.42,0.89
		C1265.33,497.98,1264.95,498.11,1264.44,498.11z M1262.57,475.67c-0.8-0.18-1.83-0.39-3.09-0.65c-1.26-0.25-2.56-0.49-3.9-0.73
		c-1.34-0.24-2.63-0.45-3.88-0.65c-1.24-0.19-2.24-0.33-2.98-0.42c-0.45,0-0.78-0.14-1-0.42c-0.22-0.28-0.32-0.58-0.29-0.91
		c0-0.3,0.12-0.57,0.35-0.82c0.24-0.25,0.61-0.38,1.11-0.38c0.74,0.06,1.78,0.18,3.12,0.36c1.33,0.18,2.71,0.39,4.14,0.62
		c1.43,0.27,2.78,0.52,4.06,0.76c1.28,0.24,2.26,0.45,2.94,0.62c0.39,0.15,0.66,0.39,0.84,0.74c0.18,0.34,0.24,0.67,0.18,1
		c-0.06,0.33-0.23,0.6-0.51,0.8C1263.38,475.79,1263.02,475.82,1262.57,475.67z M1248.63,481.72c0.27-1.33,0.96-2.41,2.07-3.2
		c1.11-0.8,2.52-1.07,4.21-0.8c1.54,0.33,2.66,1.02,3.34,2.09c0.68,1.07,0.89,2.38,0.63,3.92c-0.29,1.66-0.98,2.87-2.07,3.63
		c-1.08,0.76-2.44,0.97-4.07,0.64c-1.66-0.3-2.84-0.93-3.54-1.91C1248.49,485.11,1248.31,483.65,1248.63,481.72z M1261.41,468.36
		c-0.8-0.18-1.63-0.36-2.47-0.54c-0.84-0.18-1.7-0.36-2.56-0.53c-0.86-0.18-1.71-0.33-2.56-0.45c-0.84-0.12-1.64-0.21-2.38-0.27
		c-0.45,0-0.78-0.14-1-0.42c-0.22-0.28-0.32-0.59-0.29-0.91c0.03-0.36,0.16-0.66,0.4-0.91c0.24-0.25,0.61-0.36,1.11-0.33
		c0.74,0.06,1.57,0.15,2.5,0.27c0.92,0.12,1.85,0.25,2.8,0.4c0.92,0.18,1.83,0.36,2.74,0.54c0.9,0.18,1.71,0.36,2.42,0.53
		c0.39,0.12,0.67,0.34,0.85,0.67c0.18,0.33,0.22,0.65,0.13,0.98c-0.06,0.33-0.23,0.6-0.53,0.82
		C1262.27,468.43,1261.89,468.48,1261.41,468.36z M1251.35,482.35c-0.15,0.83-0.08,1.53,0.2,2.09c0.28,0.56,0.86,0.93,1.76,1.11
		c0.89,0.15,1.61-0.01,2.16-0.47c0.55-0.46,0.91-1.11,1.09-1.94c0.09-0.71-0.05-1.34-0.42-1.89c-0.37-0.55-0.96-0.91-1.76-1.09
		c-0.8-0.12-1.48,0.04-2.05,0.47S1251.44,481.63,1251.35,482.35z"/>
	<path class="st0" d="M1253,536.27c-0.09,0.5-0.16,1-0.2,1.49c-0.04,0.49-0.08,0.99-0.11,1.49c-0.03,0.51-0.05,1.02-0.07,1.54
		c-0.02,0.52-0.04,1.02-0.07,1.49c-0.03,0.51-0.2,0.86-0.51,1.07c-0.32,0.21-0.63,0.3-0.96,0.27c-0.36-0.03-0.68-0.17-0.96-0.42
		c-0.28-0.25-0.41-0.62-0.38-1.09c0-0.39,0.01-0.83,0.04-1.34c0.03-0.51,0.06-1.02,0.09-1.56c0.03-0.54,0.06-1.06,0.09-1.58
		c0.03-0.52,0.07-1,0.13-1.45c-0.74-0.09-1.48-0.16-2.22-0.22c-0.74-0.06-1.48-0.13-2.23-0.22c-0.74-0.09-1.49-0.21-2.25-0.36
		c-0.76-0.15-1.51-0.34-2.25-0.58c-0.51-0.09-0.85-0.3-1.03-0.65c-0.17-0.34-0.23-0.67-0.17-1c0.05-0.33,0.23-0.61,0.51-0.85
		c0.28-0.24,0.66-0.31,1.14-0.22c1.66,0.45,3.54,0.8,5.65,1.07c2.11,0.27,4.2,0.48,6.28,0.62c2.05,0.15,3.95,0.24,5.7,0.29
		c1.75,0.04,3.11,0.05,4.09,0.02c0.48,0.03,0.84,0.17,1.09,0.42c0.25,0.25,0.38,0.53,0.38,0.83c-0.03,0.27-0.16,0.52-0.4,0.76
		c-0.24,0.24-0.59,0.36-1.07,0.36c-1.51,0.15-3.09,0.21-4.72,0.2C1256.98,536.64,1255.11,536.51,1253,536.27z M1247.92,518.59
		c0.27-1.42,0.97-2.54,2.11-3.34c1.14-0.8,2.5-1.07,4.08-0.8c1.54,0.3,2.69,0.96,3.42,2.01c0.74,1.04,0.97,2.36,0.67,3.96
		c-0.27,1.69-0.94,2.91-2.02,3.65c-1.09,0.74-2.47,0.98-4.16,0.71c-1.66-0.3-2.84-0.94-3.52-1.94
		C1247.82,521.85,1247.62,520.43,1247.92,518.59z M1250.72,519.04c-0.18,0.89-0.11,1.61,0.2,2.16c0.31,0.55,0.88,0.88,1.71,1
		c0.89,0.21,1.6,0.09,2.14-0.36c0.54-0.45,0.89-1.11,1.07-2c0.12-0.63,0-1.23-0.35-1.8c-0.36-0.58-0.97-0.94-1.83-1.09
		c-0.8-0.15-1.47,0.01-2.01,0.47S1250.81,518.42,1250.72,519.04z"/>
</g>
</svg>
